# AST/ASF file generated using VICON BodyLanguage
# -----------------------------------------------
:version 1.10
:name VICON
:units
  mass 1.0
  length 0.45
  angle deg
:documentation
   .ast/.asf automatically generated from VICON data using
   VICON BodyBuilder and BodyLanguage model FoxedUp or BRILLIANT.MOD
:root
   order TX TY TZ RX RY RZ
   axis XYZ
   position 0 0 0  
   orientation 0 0 0 
:bonedata
  begin
     id 1 
     name lhipjoint
     direction 0.677091 -0.635792 0.370561 
     length 2.74323 
     axis 0 0 0  XYZ
  end
  begin
     id 2 
     name lfemur
     direction 0.34202 -0.939693 0  
     length 7.44995  
     axis 0 0 20  XYZ
    dof rx ry rz
    limits (-160.0 20.0)
           (-70.0 70.0)
           (-60.0 70.0)
  end
  begin
     id 3 
     name ltibia
     direction 0.34202 -0.939693 0   
     length 7.34467   
     axis 0 0 20   XYZ
    dof rx
    limits (-10.0 170.0)
  end
  begin
     id 4 
     name lfoot
     direction 0.101953 -0.280114 0.954537   
     length 1.72105   
     axis -90 7.62852e-016 20   XYZ
    dof rx rz
    limits (-45.0 90.0)
           (-70.0 20.0)
  end
  begin
     id 5 
     name ltoes
     direction 1.53537e-011 -4.21915e-011 1   
     length 0.865872   
     axis -90 7.62852e-016 20   XYZ
    dof rx
    limits (-90.0 20.0)
  end
  begin
     id 6 
     name rhipjoint
     direction -0.695735 -0.620586 0.361699   
     length 2.81045  
     axis 0 0 0  XYZ 
  end
  begin
     id 7 
     name rfemur
     direction -0.34202 -0.939693 0   
     length 7.29387   
     axis 0 0 -20   XYZ
    dof rx ry rz
    limits (-160.0 20.0)
           (-70.0 70.0)
           (-70.0 60.0)
  end
  begin
     id 8 
     name rtibia
     direction -0.34202 -0.939693 0   
     length 7.44935   
     axis 0 0 -20   XYZ
    dof rx
    limits (-10.0 170.0)
 end
 begin
     id 9 
     name rfoot
     direction -0.104163 -0.286184 0.952496   
     length 1.77731  
     axis -90 -7.62852e-016 -20   XYZ
    dof rx rz
    limits (-45.0 90.0)
           (-20.0 70.0)
  end
  begin
     id 10 
     name rtoes
     direction -1.5355e-011 -4.21888e-011 1   
     length 0.892424   
     axis -90 -7.62852e-016 -20   XYZ
    dof rx
    limits (-90.0 20.0)
  end
  begin
     id 11 
     name lowerback
     direction 0.0100202 0.997226 -0.0737589   
     length 2.16892   
     axis 0 0 0   XYZ
    dof rx ry rz
    limits (-20.0 45.0)
           (-30.0 30.0)
           (-30.0 30.0)
  end
  begin
     id 12 
     name upperback
     direction 0.00432398 0.999988 -0.00215019   
     length 2.17326   
     axis 0 0 0   XYZ
    dof rx ry rz
    limits (-20.0 45.0)
           (-30.0 30.0)
           (-30.0 30.0)
  end
  begin
     id 13 
     name thorax
     direction -0.00195047 0.999485 0.0320434   
     length 2.18139   
     axis 0 0 0   XYZ
    dof rx ry rz
    limits (-20.0 45.0)
           (-30.0 30.0)
           (-30.0 30.0)
  end
  begin
     id 14 
     name lowerneck
     direction 0.00782762 0.986241 0.165128   
     length 1.88415   
     axis 0 0 0   XYZ
    dof rx ry rz
    limits (-20.0 45.0)
           (-30.0 30.0)
           (-30.0 30.0)
  end
  begin
     id 15 
     name upperneck
     direction 0.00988667 0.981098 -0.193258   
     length 1.9242   
     axis 0 0 0   XYZ
    dof rx ry rz
    limits (-20.0 45.0)
           (-30.0 30.0)
           (-30.0 30.0)
  end
  begin
     id 16
     name head
     direction 0.00252199 0.996513 -0.0833958  
     length 1.93887  
     axis 0 0 0   XYZ
    dof rx ry rz
    limits (-20.0 45.0)
           (-30.0 30.0)
           (-30.0 30.0)
  end
  begin
     id 17 
     name lclavicle
     direction 0.929492 0.368193 -0.0218667  
     length 3.5955  
     axis 0 0 0   XYZ
    dof ry rz
    limits (-20.0 10.0)
           (0.0 20.0)
  end
  begin
     id 18 
     name lhumerus
     direction 1 -4.48972e-011 1.41911e-027   
     length 5.2795   
     axis 180 -30 -90   XYZ
    dof rx ry rz
    limits (-60.0 90.0)
           (-90.0 90.0)
           (-90.0 90.0)
  end
  begin
     id 19
     name lradius
     direction 1 -4.48963e-011 7.05772e-027   
     length 3.53504   
     axis 180 -30 -90   XYZ
    dof rx
    limits (-10.0 170.0)
  end
  begin
     id 20
     name lwrist
     direction 1 -4.48957e-011 9.54866e-027   
     length 1.76752   
     axis -7.69462e-015 90 90   XYZ
    dof ry
    limits (-180.0 0.0)
 end
  begin
     id 21 
     name lhand
     direction 1 -4.48979e-011 1.90973e-026   
     length 0.667948   
     axis -1.21857e-014 90 90   XYZ
    dof rx rz
    limits (-90.0 90.0)
           (-45.0 45.0)
  end
  begin
     id 22 
     name lfingers
     direction 1 -4.48987e-011 3.81946e-026   
     length 0.538517   
     axis -2.43714e-014 90 90   XYZ
    dof rx
    limits (0.0 90.0)
  end
  begin
     id 23
     name lthumb
     direction 0.707107 -6.34962e-011 0.707107   
     length 0.773206   
     axis -90 45 2.85299e-015   XYZ
    dof rx rz
    limits (-45.0 45.0)
           (-45.0 45.0)
  end
  begin
     id 24 
     name rclavicle
     direction -0.898763 0.414256 -0.143584   
     length 3.5176  
     axis 0 0 0   XYZ 
    dof ry rz
    limits (-10.0 20.0)
           (-20.0 0.0)
  end
  begin
     id 25 
     name rhumerus
     direction -1 -4.48971e-011 1.129e-027  
     length 5.25035   
     axis 180 30 90   XYZ
    dof rx ry rz
    limits (-90.0 60.0)
           (-90.0 90.0)
           (-90.0 90.0)
  end
  begin
     id 26 
     name rradius
     direction -1 -4.48955e-011 6.34664e-027   
     length 3.58884   
     axis 180 30 90   XYZ
    dof rx
    limits (-10.0 170.0)
  end
  begin
     id 27 
     name rwrist
     direction -1 -4.48966e-011 9.54866e-027   
     length 1.79442   
     axis -7.69462e-015 -90 -90   XYZ
    dof ry
    limits (-180.0 0.0)
  end
  begin
     id 28
     name rhand
     direction -1 -4.48973e-011 1.90973e-026   
     length 0.779235   
     axis -1.21857e-014 -90 -90   XYZ
    dof rx rz
    limits (-90.0 90.0)
           (-45.0 45.0)
  end
  begin
     id 29
     name rfingers
     direction -1 -4.48984e-011 3.81946e-026   
     length 0.62824   
     axis -2.43714e-014 -90 -90   XYZ
    dof rx
    limits (0.0 90.0)
  end
  begin
     id 30
     name rthumb
     direction -0.707107 -6.34968e-011 0.707107   
     length 0.90203   
     axis -90 -45 -2.85299e-015   XYZ
    dof rx rz
    limits (-45.0 45.0)
           (-45.0 45.0)
  end
:hierarchy
  begin
    root lhipjoint rhipjoint lowerback
    lhipjoint lfemur
    lfemur ltibia
    ltibia lfoot
    lfoot ltoes
    rhipjoint rfemur
    rfemur rtibia
    rtibia rfoot
    rfoot rtoes
    lowerback upperback
    upperback thorax
    thorax lowerneck lclavicle rclavicle
    lowerneck upperneck
    upperneck head
    lclavicle lhumerus
    lhumerus lradius
    lradius lwrist
    lwrist lhand lthumb
    lhand lfingers
    rclavicle rhumerus
    rhumerus rradius
    rradius rwrist
    rwrist rhand rthumb
    rhand rfingers
  end

#!OML:ASF I:\Random Stuff\random\construction\7_22_03\Session 2\subj1.ASF
:FULLY-SPECIFIED
:DEGREES
133
root 4.28705 17.6114 1.58127 -40.3526 87.4057 -46.4989
lowerback 1.06869 1.65807 0.811337
upperback 0.473982 2.21949 -0.62475
thorax -0.0579185 1.11261 -1.11682
lowerneck -19.6958 1.60163 0.172903
upperneck 5.89836 4.17732 -14.6926
head 5.37608 1.12751 -4.27476
rclavicle -4.07509e-015 8.34896e-015
rhumerus -34.7483 5.73939 -83.5906
rradius 39.0743
rwrist -2.7319
rhand -17.9163 20.6817
rfingers 7.12502
rthumb 8.3511 -9.13324
lclavicle -4.07509e-015 8.34896e-015
lhumerus -36.0836 -4.53808 83.1183
lradius 41.3127
lwrist 36.4579
lhand -20.4519 58.4545
lfingers 7.12502
lthumb 5.90357 88.3523
rfemur -8.3539 15.8067 22.442
rtibia 18.0446
rfoot -11.1594 -34.3158
rtoes -4.35963
lfemur -17.7099 -21.7046 -14.3066
ltibia 27.8709
lfoot -16.2862 19.2523
ltoes -27.8114
134
root 4.28329 17.6101 1.58315 -41.5279 87.4841 -47.654
lowerback 1.07107 1.75491 0.755879
upperback 0.450011 2.34799 -0.643938
thorax -0.0819456 1.17655 -1.1072
lowerneck -19.5772 1.40687 -0.0243256
upperneck 5.22669 3.62983 -13.0595
head 5.04138 0.991916 -3.7684
rclavicle -1.1778e-014 -3.18055e-015
rhumerus -34.8118 5.58004 -83.5691
rradius 39.0419
rwrist -2.72802
rhand -17.6068 20.6447
rfingers 7.12502
rthumb 8.64979 -9.15814
lclavicle -1.1778e-014 -3.18055e-015
lhumerus -36.0324 -4.5662 83.1341
lradius 41.2251
lwrist 36.6291
lhand -20.6391 58.4398
lfingers 7.12502
lthumb 5.72282 88.3425
rfemur -8.32616 15.8496 22.4348
rtibia 18.0389
rfoot -11.1991 -34.4202
rtoes -4.321
lfemur -17.7352 -21.843 -14.3109
ltibia 27.8888
lfoot -16.2565 19.3357
ltoes -27.8692
135
root 4.2784 17.6105 1.585 -43.4129 87.5414 -49.5248
lowerback 1.09175 1.8147 0.720248
upperback 0.40817 2.42725 -0.650261
thorax -0.135585 1.21563 -1.09615
lowerneck -19.631 1.22416 -0.230949
upperneck 4.85346 3.16119 -11.3786
head 4.84469 0.872095 -3.2446
rclavicle -7.50412e-015 -4.37326e-015
rhumerus -34.9251 5.44203 -83.5587
rradius 39.0461
rwrist -2.70876
rhand -17.4517 20.614
rfingers 7.12502
rthumb 8.79951 -9.18257
lclavicle -7.50412e-015 -4.37326e-015
lhumerus -35.9556 -4.33247 83.047
lradius 40.9866
lwrist 36.6073
lhand -20.8005 58.4948
lfingers 7.12502
lthumb 5.56697 88.4016
rfemur -8.32243 15.9249 22.4582
rtibia 18.0388
rfoot -11.1595 -34.5661
rtoes -4.49268
lfemur -17.7656 -21.9388 -14.2782
ltibia 27.8934
lfoot -16.2315 19.3494
ltoes -27.9865
136
root 4.273 17.6125 1.58729 -45.908 87.5981 -52.0032
lowerback 1.14385 1.84773 0.706089
upperback 0.334159 2.47099 -0.658737
thorax -0.239658 1.23654 -1.10088
lowerneck -19.8044 1.0592 -0.520081
upperneck 4.8176 2.76414 -9.51369
head 4.78232 0.777702 -2.64718
rclavicle -3.8763e-015 3.97569e-016
rhumerus -35.1358 5.36334 -83.5753
rradius 39.1044
rwrist -2.73477
rhand -17.4866 20.5922
rfingers 7.12502
rthumb 8.76575 -9.20572
lclavicle -3.8763e-015 3.97569e-016
lhumerus -35.9425 -4.02504 82.9183
lradius 40.7794
lwrist 36.5055
lhand -21.0366 58.7877
lfingers 7.12502
lthumb 5.33896 88.7004
rfemur -8.31624 16.0804 22.498
rtibia 18.0392
rfoot -11.2051 -34.7941
rtoes -4.30194
lfemur -17.7961 -21.9897 -14.2275
ltibia 27.8876
lfoot -16.2168 19.2521
ltoes -27.9071
137
root 4.26748 17.6126 1.5899 -48.7503 87.6615 -54.8396
lowerback 1.21347 1.85805 0.674491
upperback 0.215529 2.48412 -0.663759
thorax -0.400846 1.24163 -1.09374
lowerneck -19.7907 0.969984 -0.658005
upperneck 4.73751 2.44384 -7.75948
head 4.69635 0.726025 -2.10247
rclavicle -9.54166e-015 5.96354e-015
rhumerus -35.3977 5.28644 -83.5832
rradius 39.1107
rwrist -2.77407
rhand -17.5583 20.6619
rfingers 7.12502
rthumb 8.69656 -9.13892
lclavicle -9.54166e-015 5.96354e-015
lhumerus -36.0569 -3.75918 82.76
lradius 40.6865
lwrist 36.6506
lhand -21.4262 59.2464
lfingers 7.12502
lthumb 4.96287 89.1683
rfemur -8.30886 16.1477 22.537
rtibia 18.0391
rfoot -11.2623 -34.9663
rtoes -4.192
lfemur -17.8436 -21.9852 -14.1766
ltibia 27.8792
lfoot -16.1573 19.1072
ltoes -27.9186
138
root 4.26143 17.6124 1.59288 -52.036 87.7298 -58.1405
lowerback 1.2907 1.85722 0.623875
upperback 0.0738382 2.48205 -0.657809
thorax -0.591573 1.23898 -1.06539
lowerneck -19.7518 0.878675 -0.681308
upperneck 4.65143 2.12426 -6.17594
head 4.61888 0.668867 -1.63081
rclavicle -1.3418e-014 1.59028e-015
rhumerus -35.6433 5.15603 -83.5388
rradius 39.0138
rwrist -2.85669
rhand -17.6193 20.7952
rfingers 7.12502
rthumb 8.63773 -9.00809
lclavicle -1.3418e-014 1.59028e-015
lhumerus -36.2199 -3.54138 82.5661
lradius 40.5866
lwrist 36.9714
lhand -21.5412 59.4341
lfingers 7.12502
lthumb 4.85182 89.3586
rfemur -8.3021 16.2458 22.5699
rtibia 18.0115
rfoot -11.3614 -35.1702
rtoes -3.94268
lfemur -17.931 -21.8997 -14.1268
ltibia 27.8921
lfoot -16.0506 18.9212
ltoes -28.2271
139
root 4.25531 17.6134 1.59654 -55.4451 87.7869 -61.5556
lowerback 1.35685 1.87538 0.572504
upperback -0.0414514 2.50539 -0.640292
thorax -0.749085 1.2495 -1.02427
lowerneck -19.7527 0.705403 -0.749062
upperneck 4.54769 1.72551 -4.63417
head 4.54919 0.57154 -1.17303
rclavicle 3.06128e-014 2.38542e-015
rhumerus -35.8623 4.92678 -83.4093
rradius 38.861
rwrist -2.94418
rhand -17.6834 20.8378
rfingers 7.12502
rthumb 8.57586 -8.96801
lclavicle 3.06128e-014 2.38542e-015
lhumerus -36.3177 -3.39547 82.4179
lradius 40.4438
lwrist 37.2416
lhand -21.3538 59.3589
lfingers 7.12502
lthumb 5.03278 89.2791
rfemur -8.26564 16.4781 22.6097
rtibia 17.9437
rfoot -11.5586 -35.4698
rtoes -3.15368
lfemur -18.0213 -21.8707 -14.0713
ltibia 27.9377
lfoot -16.0102 18.7842
ltoes -28.2746
140
root 4.24936 17.612 1.59942 -58.9228 87.8143 -65.0231
lowerback 1.41675 1.91714 0.545803
upperback -0.134111 2.56071 -0.606722
thorax -0.878999 1.27626 -0.980493
lowerneck -19.7427 0.519498 -0.903363
upperneck 4.51207 1.32684 -2.94627
head 4.50688 0.482048 -0.655535
rclavicle -3.23025e-015 0
rhumerus -36.0726 4.48373 -83.1497
rradius 38.7161
rwrist -2.89674
rhand -17.7314 20.7898
rfingers 7.12502
rthumb 8.52957 -9.01794
lclavicle -3.23025e-015 0
lhumerus -36.2731 -3.16464 82.2897
lradius 40.1664
lwrist 37.3521
lhand -21.1716 59.402
lfingers 7.12502
lthumb 5.2087 89.3179
rfemur -8.20564 16.6475 22.6759
rtibia 17.8775
rfoot -11.7616 -35.7182
rtoes -2.42704
lfemur -18.0939 -21.9023 -14.0018
ltibia 27.9948
lfoot -16.0953 18.6788
ltoes -27.7639
141
root 4.24279 17.6095 1.60188 -62.9448 87.8363 -69.0238
lowerback 1.53003 1.96014 0.524561
upperback -0.239074 2.61814 -0.556683
thorax -1.05203 1.30391 -0.925552
lowerneck -19.7387 0.413662 -0.801385
upperneck 4.60918 1.00743 -1.52521
head 4.52165 0.418487 -0.254966
rclavicle -6.5102e-015 2.38542e-015
rhumerus -36.2982 3.84576 -82.7726
rradius 38.5744
rwrist -2.78045
rhand -17.7509 20.9233
rfingers 7.12502
rthumb 8.51074 -8.88518
lclavicle -6.5102e-015 2.38542e-015
lhumerus -36.1564 -2.89603 82.1344
lradius 39.7636
lwrist 37.5284
lhand -21.096 59.2683
lfingers 7.12502
lthumb 5.28169 89.1825
rfemur -8.14981 16.8768 22.7488
rtibia 17.8481
rfoot -11.9893 -36.0458
rtoes -1.68561
lfemur -18.1585 -21.9754 -13.9331
ltibia 28.0435
lfoot -16.1802 18.5996
ltoes -27.3903
142
root 4.23403 17.6076 1.60531 -66.9596 87.8935 -73.0232
lowerback 1.71186 1.99591 0.442723
upperback -0.377037 2.66503 -0.499049
thorax -1.30079 1.32643 -0.832619
lowerneck -19.6656 0.165467 -0.849061
upperneck 4.39502 0.586897 -0.516436
head 4.43669 0.282511 0.0304632
rclavicle -2.76808e-014 4.37326e-015
rhumerus -36.5647 3.13414 -82.3187
rradius 38.3855
rwrist -2.69543
rhand -17.7399 21.0614
rfingers 7.12502
rthumb 8.52132 -8.74663
lclavicle -2.76808e-014 4.37326e-015
lhumerus -36.079 -2.63219 81.9399
lradius 39.3829
lwrist 37.8627
lhand -21.089 58.9463
lfingers 7.12502
lthumb 5.28838 88.8603
rfemur -8.12231 17.2729 22.7696
rtibia 17.8461
rfoot -12.2194 -36.521
rtoes -0.932465
lfemur -18.2395 -22.0651 -13.9052
ltibia 28.0868
lfoot -16.1079 18.5574
ltoes -27.7422
143
root 4.22525 17.6052 1.60912 -70.2178 87.9985 -76.2537
lowerback 1.94161 1.999 0.28314
upperback -0.562643 2.66625 -0.451029
thorax -1.62934 1.3268 -0.70821
lowerneck -19.8316 -0.0148515 -0.822547
upperneck 4.94376 0.209902 0.692708
head 4.63364 0.175024 0.37246
rclavicle 1.38155e-014 5.56597e-015
rhumerus -36.9303 2.57847 -81.9103
rradius 38.1479
rwrist -2.93963
rhand -17.9382 21.1187
rfingers 7.12502
rthumb 8.32993 -8.69708
lclavicle 1.38155e-014 5.56597e-015
lhumerus -36.019 -1.95866 81.5271
lradius 38.9033
lwrist 37.9707
lhand -21.0363 58.7714
lfingers 7.12502
lthumb 5.33927 88.6841
rfemur -8.09455 17.7535 22.7252
rtibia 17.8793
rfoot -12.4554 -37.0578
rtoes -0.337138
lfemur -18.2906 -22.1658 -13.9517
ltibia 28.1136
lfoot -15.9884 18.5203
ltoes -28.2255
